<svg width="1200" height="800" viewBox="0 0 1200 800" fill="none" xmlns="http://www.w3.org/2000/svg"><rect width="1200" height="800" rx="60" fill="#070B19"/><circle cx="915" cy="145" r="250" fill="#8B5CF6" opacity=".18"/><circle cx="250" cy="635" r="270" fill="#38BDF8" opacity=".13"/><rect x="240" y="232" width="580" height="350" rx="44" transform="rotate(-8 240 232)" fill="url(#card1)" stroke="#BBD7FF" stroke-opacity=".22" stroke-width="2"/><rect x="386" y="244" width="580" height="350" rx="44" transform="rotate(7 386 244)" fill="url(#card2)" stroke="#BBD7FF" stroke-opacity=".25" stroke-width="2"/><circle cx="470" cy="354" r="34" fill="white" opacity=".22"/><circle cx="506" cy="354" r="34" fill="white" opacity=".14"/><rect x="470" y="480" width="260" height="22" rx="11" fill="white" opacity=".72"/><rect x="470" y="526" width="130" height="16" rx="8" fill="white" opacity=".4"/><text x="730" y="356" fill="white" font-family="Arial" font-size="54" font-weight="900">COMPARIA</text><rect x="210" y="612" width="780" height="72" rx="36" fill="#0E1A33" stroke="#263D66"/><rect x="246" y="638" width="410" height="20" rx="10" fill="#D7F9FF" opacity=".75"/><rect x="696" y="630" width="246" height="36" rx="18" fill="#22D3EE" opacity=".8"/><defs><linearGradient id="card1" x1="240" y1="232" x2="820" y2="582"><stop stop-color="#1E293B"/><stop offset="1" stop-color="#2563EB"/></linearGradient><linearGradient id="card2" x1="386" y1="244" x2="966" y2="594"><stop stop-color="#111827"/><stop offset=".6" stop-color="#312E81"/><stop offset="1" stop-color="#0891B2"/></linearGradient></defs></svg>