<svg width="1200" height="800" viewBox="0 0 1200 800" fill="none" xmlns="http://www.w3.org/2000/svg"><rect width="1200" height="800" rx="58" fill="#06101F"/><circle cx="960" cy="154" r="250" fill="#22C55E" opacity=".18"/><circle cx="256" cy="620" r="270" fill="#38BDF8" opacity=".16"/><rect x="118" y="112" width="964" height="576" rx="44" fill="#0B1428" stroke="#20385C" stroke-width="2"/><rect x="178" y="178" width="354" height="438" rx="38" fill="#F8FAFC"/><rect x="218" y="230" width="274" height="150" rx="28" fill="url(#grad)"/><rect x="230" y="410" width="210" height="20" rx="10" fill="#CBD5E1"/><rect x="230" y="452" width="256" height="18" rx="9" fill="#CBD5E1" opacity=".65"/><rect x="230" y="512" width="160" height="50" rx="25" fill="#0F172A"/><path d="M345 282c30 0 54 24 54 54s-24 54-54 54-54-24-54-54 24-54 54-54Z" fill="#04111F" opacity=".22"/><path d="M352 268v118m43-90h-67a28 28 0 0 0 0 56h40a28 28 0 1 1 0 56h-78" stroke="white" stroke-width="18" stroke-linecap="round"/><rect x="616" y="186" width="388" height="126" rx="32" fill="#10233C" stroke="#2C4F7B"/><text x="660" y="244" fill="#94A3B8" font-family="Arial" font-size="24">Récompense estimée</text><text x="660" y="292" fill="#67F6B7" font-family="Arial" font-size="54" font-weight="800">+35€</text><rect x="616" y="348" width="388" height="112" rx="30" fill="#10233C" stroke="#2C4F7B"/><rect x="652" y="386" width="230" height="18" rx="9" fill="#E2E8F0"/><rect x="652" y="422" width="300" height="14" rx="7" fill="#64748B" opacity=".55"/><rect x="616" y="496" width="388" height="70" rx="35" fill="url(#button)"/><text x="810" y="540" text-anchor="middle" fill="white" font-family="Arial" font-size="24" font-weight="800">Activer cette économie</text><defs><linearGradient id="grad" x1="218" y1="230" x2="492" y2="380"><stop stop-color="#5EEAD4"/><stop offset="1" stop-color="#2563EB"/></linearGradient><linearGradient id="button" x1="616" y1="496" x2="1004" y2="566"><stop stop-color="#22D3EE"/><stop offset="1" stop-color="#2563EB"/></linearGradient></defs></svg>