<svg width="1200" height="800" viewBox="0 0 1200 800" fill="none" xmlns="http://www.w3.org/2000/svg"><rect width="1200" height="800" rx="60" fill="#06121A"/><circle cx="240" cy="180" r="230" fill="#22D3EE" opacity=".16"/><circle cx="975" cy="655" r="300" fill="#22C55E" opacity=".14"/><path d="M184 424 600 162l416 262v250H184V424Z" fill="#0B1728" stroke="#285277" stroke-width="3"/><path d="M306 421 600 238l294 183" stroke="#5EEAD4" stroke-width="18" stroke-linecap="round"/><rect x="352" y="446" width="496" height="168" rx="32" fill="#101F34" stroke="#274667"/><path d="M548 570l42-98h58l-46 82h64l-112 128 26-112h-32Z" fill="#67E8F9"/><rect x="214" y="520" width="96" height="96" rx="24" fill="#0E2034" stroke="#285277"/><rect x="890" y="520" width="96" height="96" rx="24" fill="#0E2034" stroke="#285277"/><path d="M236 568h52M262 542v52M914 550h48M914 586h48" stroke="#E0F2FE" stroke-width="12" stroke-linecap="round"/><rect x="292" y="116" width="616" height="86" rx="43" fill="#0D2036" stroke="#294C72"/><rect x="332" y="148" width="324" height="20" rx="10" fill="#E0F7FF"/><rect x="682" y="142" width="184" height="32" rx="16" fill="#22C55E" opacity=".75"/></svg>