<svg width="1200" height="800" viewBox="0 0 1200 800" fill="none" xmlns="http://www.w3.org/2000/svg"><rect width="1200" height="800" rx="60" fill="#06101E"/><circle cx="920" cy="610" r="300" fill="#EF4444" opacity=".12"/><circle cx="260" cy="190" r="260" fill="#22D3EE" opacity=".16"/><rect x="130" y="160" width="940" height="480" rx="48" fill="#0C172A" stroke="#28466D" stroke-width="2"/><path d="M258 520C340 398 414 360 520 370c132 12 174-112 298-94 60 8 102 48 154 112" stroke="#56E5FF" stroke-width="10" stroke-linecap="round" opacity=".88"/><rect x="206" y="220" width="262" height="152" rx="34" fill="#10213A" stroke="#2B527B"/><text x="337" y="284" text-anchor="middle" fill="white" font-family="Arial" font-size="50" font-weight="900">CHF</text><text x="337" y="326" text-anchor="middle" fill="#9EC8EA" font-family="Arial" font-size="23">Salaire suisse</text><rect x="732" y="428" width="262" height="152" rx="34" fill="#10213A" stroke="#2B527B"/><text x="863" y="492" text-anchor="middle" fill="white" font-family="Arial" font-size="50" font-weight="900">EUR</text><text x="863" y="534" text-anchor="middle" fill="#9EC8EA" font-family="Arial" font-size="23">Dépenses France</text><circle cx="600" cy="396" r="84" fill="#E11D48"/><path d="M600 342v108M546 396h108" stroke="white" stroke-width="30" stroke-linecap="round"/></svg>