<svg width="1200" height="800" viewBox="0 0 1200 800" fill="none" xmlns="http://www.w3.org/2000/svg"><rect width="1200" height="800" rx="60" fill="#06111F"/><circle cx="280" cy="170" r="250" fill="#38BDF8" opacity=".18"/><circle cx="910" cy="590" r="310" fill="#2563EB" opacity=".18"/><rect x="420" y="82" width="360" height="636" rx="58" fill="#0B1220" stroke="#3A4D73" stroke-width="5"/><rect x="452" y="128" width="296" height="544" rx="36" fill="url(#screen)"/><circle cx="600" cy="630" r="18" fill="#111827"/><path d="M536 204h128" stroke="#E0F7FF" stroke-width="18" stroke-linecap="round"/><path d="M520 292c42-36 116-36 158 0M548 334c27-22 76-22 104 0M582 374c10-8 26-8 36 0" stroke="#67E8F9" stroke-width="16" stroke-linecap="round"/><text x="600" y="488" text-anchor="middle" fill="white" font-family="Arial" font-size="96" font-weight="900">5G</text><rect x="168" y="196" width="188" height="92" rx="28" fill="#0F213B" stroke="#214C79"/><text x="262" y="254" text-anchor="middle" fill="#E0F7FF" font-family="Arial" font-size="26" font-weight="800">Data</text><rect x="844" y="420" width="188" height="92" rx="28" fill="#0F213B" stroke="#214C79"/><text x="938" y="478" text-anchor="middle" fill="#E0F7FF" font-family="Arial" font-size="26" font-weight="800">Réseau</text><defs><linearGradient id="screen" x1="452" y1="128" x2="748" y2="672"><stop stop-color="#12355F"/><stop offset=".55" stop-color="#09172C"/><stop offset="1" stop-color="#0A1020"/></linearGradient></defs></svg>